<svg width="145" height="30" viewBox="0 0 145 30" fill="none" xmlns="http://www.w3.org/2000/svg">
<g clip-path="url(#clip0)">
<path d="M20.4548 27.5941C17.9555 28.4156 15.3448 28.8484 12.7141 28.8776C8.46261 28.8776 5.41435 27.795 3.28891 25.7472C1.16283 23.7437 0 20.7359 0 17.3263C0.0397826 9.62611 5.655 5.21415 13.2757 5.21415C15.4808 5.1597 17.6749 5.54135 19.7322 6.33719L18.6522 10.5483C16.9429 9.82227 15.0951 9.4801 13.2391 9.54589C8.82717 9.54589 5.49848 12.0326 5.49848 17.0459C5.49848 21.8185 8.5063 24.6659 12.7983 24.6659C13.6698 24.7291 14.5448 24.6061 15.3652 24.3052V19.4524H11.7913V15.3613H20.4548V27.5941Z" fill="#192528"/>
<path d="M22.0585 17.3654C22.0585 14.8787 21.9783 13.2743 21.9385 11.8304H26.4704L26.6341 14.9198H26.7541C27.054 13.9398 27.6514 13.0774 28.4635 12.4522C29.2755 11.827 30.262 11.47 31.2861 11.4306C31.6489 11.4127 32.0125 11.4397 32.3687 11.5109V16.4439C31.9055 16.3543 31.4343 16.3135 30.9626 16.3219C29.0374 16.3219 27.7141 17.3654 27.3933 18.9691C27.3116 19.3513 27.2714 19.7412 27.2733 20.1319V28.6754H22.0585V17.3654Z" fill="#192528"/>
<path d="M38.8641 21.8987C39.0245 24.0646 41.1904 25.1074 43.6367 25.1074C45.2138 25.1271 46.7841 24.897 48.2893 24.4259L48.9708 27.9554C47.0212 28.6792 44.9537 29.0331 42.8743 28.9989C37.1391 28.9989 33.8906 25.71 33.8906 20.4163C33.8906 16.1648 36.5378 11.4326 42.393 11.4326C47.8478 11.4326 49.893 15.6841 49.893 19.8548C49.8791 20.5529 49.8256 21.2497 49.7326 21.9417H38.8641V21.8987ZM45.0408 18.3294C45.0408 17.0459 44.4793 14.9204 42.0728 14.9204C39.8671 14.9204 38.9848 16.9259 38.8243 18.3294H45.0408Z" fill="#192528"/>
<path d="M62.0456 28.6363L61.7247 26.9517H61.6041C61.0083 27.6365 60.2668 28.1793 59.434 28.5404C58.6012 28.9016 57.6982 29.0718 56.791 29.0387C56.0885 29.0759 55.3857 28.9697 54.7256 28.7265C54.0654 28.4832 53.4618 28.108 52.9514 27.6238C52.441 27.1395 52.0347 26.5564 51.7571 25.9099C51.4795 25.2634 51.3365 24.5672 51.3369 23.8637C51.3369 19.4941 55.2676 17.4071 61.203 17.4071V17.1665C61.203 16.2841 60.7217 15.0006 58.1547 15.0006C56.52 15.026 54.9187 15.4678 53.5021 16.2841L52.5395 12.915C54.5672 11.9 56.8104 11.3907 59.0776 11.4306C64.6928 11.4306 66.4974 14.7195 66.4974 18.69V24.5458C66.476 25.9136 66.5564 27.2811 66.738 28.6369L62.0456 28.6363ZM61.4039 20.6954C58.6367 20.6556 56.5126 21.2967 56.5126 23.3426C56.4952 23.6175 56.5379 23.8929 56.6378 24.1497C56.7377 24.4064 56.8924 24.6383 57.091 24.8292C57.2897 25.0201 57.5275 25.1654 57.7881 25.255C58.0486 25.3446 58.3255 25.3763 58.5995 25.348C59.1989 25.355 59.7852 25.1727 60.275 24.827C60.7647 24.4813 61.1328 23.9899 61.3269 23.4228C61.4063 23.1354 61.4469 22.8386 61.4476 22.5404V20.6954H61.4039Z" fill="#192528"/>
<path d="M75.6013 6.97894V11.792H79.3715V15.6398H75.6013V21.7363C75.6013 23.7816 76.0826 24.7044 77.6882 24.7044C78.2118 24.694 78.7344 24.6539 79.2535 24.5844L79.2939 28.5548C78.191 28.8951 77.0381 29.0442 75.885 28.9957C74.4368 29.0441 73.0268 28.5261 71.9543 27.5518C70.9917 26.5494 70.5104 24.9431 70.5104 22.5385V15.6822H68.2617V11.8344H70.5078V8.1822L75.6013 6.97894Z" fill="#192528"/>
<path d="M80.8154 5.69547C83.1656 5.35023 85.5391 5.1893 87.9143 5.21417C92.3263 5.21417 95.1737 6.01634 97.4198 7.70091C99.8263 9.50547 101.35 12.3535 101.35 16.4439C101.35 20.8957 99.7461 23.944 97.5026 25.8287C95.0563 27.874 91.3259 28.8366 86.7939 28.8366C84.7958 28.8631 82.7984 28.7425 80.818 28.4759L80.8154 5.69547ZM86.0693 24.6261C86.678 24.7343 87.2968 24.7746 87.9143 24.7461C92.6869 24.7866 95.775 22.1792 95.775 16.6044C95.8154 11.7913 92.9706 9.22438 88.4759 9.22438C87.6826 9.21706 86.8905 9.28409 86.1098 9.4246V24.6261H86.0693Z" fill="#FF8A15"/>
<path d="M113.462 28.5959L113.141 26.9113H113.021C112.425 27.5961 111.683 28.139 110.851 28.5001C110.018 28.8612 109.115 29.0314 108.208 28.9983C107.505 29.0357 106.802 28.9295 106.142 28.6864C105.482 28.4433 104.879 28.0682 104.368 27.5841C103.858 27.1 103.451 26.5169 103.174 25.8706C102.896 25.2242 102.753 24.5281 102.753 23.8246C102.753 19.455 106.684 17.3681 112.619 17.3681V17.1274C112.619 16.245 112.138 14.9615 109.571 14.9615C107.936 14.987 106.335 15.4287 104.918 16.245L103.956 12.8759C105.983 11.8604 108.227 11.3506 110.494 11.3902C116.109 11.3902 117.914 14.6791 117.914 18.6496V24.5055C117.893 25.8732 117.973 27.2407 118.155 28.5965L113.462 28.5959ZM112.862 20.655C110.095 20.6152 107.971 21.2563 107.971 23.3022C107.954 23.5771 107.996 23.8526 108.096 24.1093C108.196 24.366 108.351 24.5979 108.549 24.7888C108.748 24.9797 108.986 25.125 109.246 25.2146C109.507 25.3042 109.784 25.3359 110.058 25.3076C110.657 25.3147 111.244 25.1323 111.733 24.7867C112.223 24.441 112.591 23.9495 112.785 23.3824C112.865 23.095 112.905 22.7982 112.906 22.5V20.655H112.862Z" fill="#FF8A15"/>
<path d="M137.607 22.0591V28.9976H136V26.1502H133.235V28.9976H131.631V22.0591H133.235V24.7461H136V22.0591H137.607Z" fill="#192528"/>
<path d="M138.931 29.0374V22.0591H142.061C142.37 22.0599 142.676 22.1244 142.958 22.2486C143.241 22.3728 143.496 22.5541 143.705 22.7811C143.902 23.0098 144.065 23.2665 144.187 23.5428C144.297 23.8094 144.352 24.0961 144.347 24.3848C144.34 24.6007 144.313 24.8155 144.267 25.0265C144.229 25.2291 144.147 25.4208 144.026 25.5881C143.932 25.7668 143.811 25.9293 143.665 26.0694C143.523 26.2114 143.361 26.3328 143.184 26.43L144.708 29.0387H142.904L141.58 26.7926H140.537V29.0374H138.931ZM140.535 25.3852H142.019C142.117 25.3887 142.215 25.3643 142.3 25.3146C142.385 25.265 142.454 25.1922 142.5 25.1048C142.637 24.9045 142.707 24.6659 142.7 24.4233C142.707 24.2994 142.689 24.1755 142.648 24.0586C142.606 23.9416 142.543 23.834 142.46 23.7418C142.394 23.6673 142.314 23.6074 142.224 23.5659C142.134 23.5245 142.037 23.5024 141.938 23.5011H140.535V25.3852Z" fill="#192528"/>
<path d="M130.187 15.2002C130.187 15.4004 130.147 15.5609 130.147 15.7617L129.184 26.1496C129.184 27.1708 128.779 28.1501 128.057 28.8722C127.335 29.5943 126.355 30 125.334 30C124.313 30 123.333 29.5943 122.611 28.8722C121.889 28.1501 121.484 27.1708 121.484 26.1496L121.403 25.2274C122.46 22.9197 123.837 20.7729 125.494 18.8504C126.841 17.3772 128.428 16.143 130.187 15.2002Z" fill="#FF8A15"/>
<path d="M137.968 5.61461L131.832 11.7913C131.165 12.4436 130.681 13.2595 130.428 14.1574C126.944 15.7538 123.778 17.9688 121.083 20.6948L120.643 15.8035C120.632 14.3047 120.043 12.8678 118.998 11.7926L112.822 5.61591C112.439 5.23296 112.224 4.71357 112.224 4.172C112.224 3.63043 112.439 3.11103 112.822 2.72809C113.205 2.34514 113.724 2.13 114.266 2.13C114.807 2.13 115.327 2.34514 115.71 2.72809L122.648 9.66656L123.249 10.2679C123.535 10.5606 123.879 10.7903 124.259 10.9422C124.639 11.0942 125.046 11.165 125.455 11.1503C124.979 11.658 124.44 12.1027 123.851 12.4735C125.261 12.0927 126.538 11.3293 127.541 10.2679L128.142 9.66656L135.08 2.72678C135.463 2.34383 135.983 2.12869 136.524 2.12869C137.066 2.12869 137.585 2.34383 137.968 2.72678C138.351 3.10973 138.566 3.62912 138.566 4.17069C138.566 4.71227 138.351 5.23166 137.968 5.61461Z" fill="#FF8A15"/>
<path d="M125.414 8.82391C127.851 8.82391 129.826 6.84861 129.826 4.41196C129.826 1.9753 127.851 0 125.414 0C122.977 0 121.002 1.9753 121.002 4.41196C121.002 6.84861 122.977 8.82391 125.414 8.82391Z" fill="#FF8A15"/>
</g>
<defs>
<clipPath id="clip0">
<rect width="144.706" height="30" fill="white"/>
</clipPath>
</defs>
</svg>
